# xmcd
# 
# Track frame offsets:
#     150
#     12378
#     26028
#     41740
#     55490
#     69865
#     81903
#     97415
#     112268
#     125883
#     140765
#     156408
#     168898
#     182393
#     194643
#     208950
#     222695
#     236390
#     250265
#     262370
#     274370
# 
# Disc length: 3848
# 
# Revision: 6
# Processed by: cddbd v1.5.2PL0 Copyright (c) Steve Scherf et al.
# Submitted via: fre:ac v1.0.31
# 
DISCID=5d0f0615
DTITLE=Fats Waller and His Rhythm - The Last Years (1940-43) - Disc 2
DYEAR=1989
DGENRE=Jazz
TTITLE0=Mamacita
TTITLE1=Liver Lip Jones
TTITLE2=Buckin' The Dice
TTITLE3=Pantin' In The Panther Room [take 1]
TTITLE4=Come Down To Earth, My Angel [take 1]
TTITLE5=Shortnin' Bread [take 2]
TTITLE6=I Repent
TTITLE7=Do You Have To Go?
TTITLE8=Pan-Pan
TTITLE9=I Wanna Hear Swing Songs
TTITLE10=You're Gonna Be Sorry
TTITLE11=All That Meat And No Potatoes
TTITLE12=Let's Get Away From It All
TTITLE13=Twenty Four Robbers
TTITLE14=I Understand [take 1]
TTITLE15=Sad Sap Sucker Am I
TTITLE16=Headlines In The News
TTITLE17=Chant of The Groove
TTITLE18=Come And Get It
TTITLE19=Rump Steak Serenade
TTITLE20=Ain't Nothin' To It
EXTD=YEAR: 1989
EXTT0=
EXTT1=
EXTT2=
EXTT3=
EXTT4=
EXTT5=
EXTT6=
EXTT7=
EXTT8=
EXTT9=
EXTT10=
EXTT11=
EXTT12=
EXTT13=
EXTT14=
EXTT15=
EXTT16=
EXTT17=
EXTT18=
EXTT19=
EXTT20=
PLAYORDER=
